<?xml version="1.0" standalone="no"?>
<!DOCTYPE svg PUBLIC "-//W3C//DTD SVG 20010904//EN"
 "http://www.w3.org/TR/2001/REC-SVG-20010904/DTD/svg10.dtd">
<svg version="1.0" xmlns="http://www.w3.org/2000/svg"
 width="90.000000pt" height="90.000000pt" viewBox="0 0 90.000000 90.000000"
 preserveAspectRatio="xMidYMid meet">
<metadata>
Created by potrace 1.11, written by Peter Selinger 2001-2013
</metadata>
<g transform="translate(0.000000,90.000000) scale(0.100000,-0.100000)"
fill="#000000" stroke="none">
<path d="M403 883 c-5 -10 -7 -27 -7 -38 1 -11 2 -28 3 -37 1 -15 10 -18 50
-18 30 0 51 5 53 13 4 10 3 60 -1 90 -1 4 -21 7 -46 7 -32 0 -46 -5 -52 -17z"/>
<path d="M795 848 c0 -47 2 -53 25 -58 14 -3 37 -4 53 -2 27 4 28 6 25 56 l-3
51 -50 3 -51 3 1 -53z"/>
<path d="M10 762 c-11 -4 -14 -101 -2 -103 43 -5 85 -3 90 6 11 17 11 84 0 91
-11 7 -72 11 -88 6z"/>
<path d="M290 760 c-20 -5 -24 -12 -25 -44 0 -52 6 -58 56 -59 l44 -1 3 51 c3
49 2 51 -25 55 -16 2 -39 1 -53 -2z"/>
<path d="M670 755 c-11 -13 -8 -95 3 -96 31 -3 75 -1 85 5 14 8 13 84 -1 93
-17 10 -78 9 -87 -2z"/>
<path d="M799 758 c-7 -15 -3 -91 5 -94 25 -9 76 -11 76 -2 0 5 5 6 10 3 6 -4
10 13 10 44 l0 51 -50 0 c-27 0 -51 -1 -51 -2z"/>
<path d="M210 632 c0 -5 -16 -6 -35 -4 -19 2 -35 0 -36 -4 0 -5 -3 -28 -5 -51
-3 -30 0 -43 8 -44 7 0 30 -2 51 -4 20 -1 40 2 44 8 9 15 10 68 0 74 -4 2 -5
8 -2 13 3 4 -2 10 -10 14 -8 3 -15 2 -15 -2z"/>
<path d="M542 623 c-13 -13 -17 -92 -4 -94 34 -6 92 -3 95 6 1 5 3 28 2 50 0
39 -1 40 -41 45 -26 4 -45 1 -52 -7z"/>
<path d="M730 631 c0 -3 -15 -6 -32 -6 -32 0 -33 -1 -34 -47 -1 -33 3 -48 13
-49 7 -1 30 -2 51 -3 l37 -1 1 52 c1 42 -2 52 -17 56 -11 3 -19 2 -19 -2z"/>
<path d="M403 613 c-6 -14 -7 -51 -4 -81 1 -9 87 -10 96 0 6 5 9 52 6 86 -2
20 -90 16 -98 -5z"/>
<path d="M799 618 c-5 -44 -4 -74 3 -84 4 -6 27 -10 50 -10 l43 1 0 50 0 50
-47 3 c-34 2 -48 -1 -49 -10z"/>
<path d="M0 444 l0 -52 53 1 52 1 2 48 c1 26 -1 49 -5 49 -4 1 -28 3 -54 4
l-48 1 0 -52z"/>
<path d="M269 473 c-5 -80 -3 -84 36 -80 19 3 35 0 35 -5 0 -5 7 -3 15 6 9 8
15 33 15 59 l0 45 -50 -1 c-45 0 -50 -2 -51 -24z"/>
<path d="M666 491 c-3 -5 -1 -72 3 -93 1 -8 57 -9 84 -1 14 3 17 14 15 51 l-3
46 -48 1 c-26 1 -49 -1 -51 -4z"/>
<path d="M799 496 c-1 -1 -2 -23 -3 -49 -2 -41 1 -48 18 -52 12 -3 30 -3 41
-1 11 3 26 5 33 5 13 1 18 90 5 92 -10 2 -93 6 -94 5z"/>
<path d="M404 356 c-2 -6 -5 -28 -7 -48 -3 -27 0 -39 12 -44 26 -11 91 -10 92
1 5 44 4 77 -2 87 -10 16 -89 19 -95 4z"/>
<path d="M537 355 c-9 -6 -11 -17 -7 -30 4 -11 5 -26 2 -33 -7 -21 15 -38 50
-37 54 2 58 9 49 101 -1 14 -75 13 -94 -1z"/>
<path d="M803 361 c-13 -9 -10 -91 4 -99 7 -5 30 -7 50 -7 l38 2 0 54 0 53
-42 2 c-23 0 -45 -2 -50 -5z"/>
<path d="M23 232 c-20 -3 -23 -9 -23 -53 0 -27 3 -49 8 -50 4 0 15 -2 25 -4 9
-2 17 0 17 4 0 4 12 7 27 6 26 0 27 3 29 47 1 45 0 46 -30 50 -17 1 -41 2 -53
0z"/>
<path d="M271 220 c-9 -17 -7 -77 2 -86 3 -4 25 -7 49 -7 l43 -1 3 52 c2 29
-1 52 -5 53 -60 5 -86 2 -92 -11z"/>
<path d="M671 230 c-4 -3 -7 -26 -8 -52 l-1 -46 45 -4 c24 -2 48 1 53 7 10 12
11 95 1 96 -32 3 -84 3 -90 -1z"/>
<path d="M797 223 c-2 -5 -3 -26 -2 -48 1 -35 4 -40 31 -46 17 -3 40 -2 52 2
18 7 22 16 22 54 l0 45 -49 0 c-28 0 -52 -3 -54 -7z"/>
<path d="M460 106 c-3 -2 -18 -6 -34 -9 -30 -3 -33 -14 -27 -88 1 -6 22 -9 53
-7 l52 3 1 48 c0 40 -3 47 -17 44 -9 -3 -18 -1 -20 5 -2 5 -6 7 -8 4z"/>
<path d="M581 101 c-7 -5 -21 -7 -30 -4 -15 4 -18 -4 -20 -46 l-2 -51 54 0 53
0 -1 48 c0 26 -5 47 -10 47 -6 0 -15 3 -20 7 -6 4 -17 3 -24 -1z"/>
<path d="M809 100 c-11 -7 -16 -22 -15 -52 l2 -43 52 -3 52 -3 0 43 c0 53 -14
70 -46 58 -13 -5 -24 -5 -26 0 -2 5 -10 5 -19 0z"/>
</g>
</svg>
